<?xml version="1.0" encoding="utf-8"?>
<!-- Generator: Adobe Illustrator 22.1.0, SVG Export Plug-In . SVG Version: 6.00 Build 0)  -->
<svg version="1.1" id="Layer_1" xmlns="http://www.w3.org/2000/svg" xmlns:xlink="http://www.w3.org/1999/xlink" x="0px" y="0px"
	 viewBox="0 0 381.1 1175.8" preserveAspectRatio= "xMidYMid" style="enable-background:new 0 0 381.1 1175.8;" xml:space="preserve">
<style type="text/css">
	.st0{fill:#BF0B02;}
	.st1{fill:#FFFFFF;stroke:#000000;stroke-miterlimit:10;}
	.st2{fill:#FFFFFF;}
	.st3{fill:#3D0101;}
	.st4{fill:none;stroke:#000000;stroke-miterlimit:10;}
</style>
<path class="st0" d="M152.9,229.1c0,0,3,6.7,39.3,29.3c-1.6,18.6-3.2,37.3-4.7,56.1c-9.8,122.3-16.3,242.2-19.9,359.6
	c-0.1,1.9-0.8,11.6-6.7,14.1c-4.4,1.9-9.7-0.9-14.1-4c-21.9-15.1-44.3-45.4-61.3-73.7c-13.7-22.9-22.5-27.4-28.2-26.3
	c-18.6,3.5-31.6,70.5-8.9,123.7c2.9,6.7,5.8,12.2,8.2,16.1c26.2,48.3,27,84.3,23.9,107c-10.3,74.5-76,98-80.2,172.2
	c-2.4,42,16.3,75.1,23.2,86.1c69.2,109.3,299,110.6,346.7,29.1c23.3-39.9,3.5-100.5-4.5-124.9c-26.7-81.7-48.1-83.6-55.8-147.9
	c-8.5-70.6,17.6-136.3-0.7-143.3c-1.9-0.7-3.7-0.4-7.3,0.2c-28.3,4.6-39.5,37.8-46.2,37.4c-11.4-0.6-18.6-98-18.7-348
	c-1.2-48.7-2.4-97.4-3.6-146.1c1.8-6.5,4.8-10.9,7.2-13.6c10.4-11.9,29.2-15.5,48.3-10.3c-14.2-40.7-28.5-81.4-42.7-122.1
	c3.2-1.8,33.8-19.9,34-48.5c0.2-26.6-25.9-52.1-44.1-51.3C212.4,1.1,182.8,46.6,152.9,229.1z"/>
<path class="st1" d="M4.8,290.5"/>
<path class="st1" d="M151.4,1079.4c1-15.2,2-30.5,2.9-45.7c25.6,1,51.2,1.9,76.9,2.9c-0.9,14.9-1.8,29.9-2.6,44.8
	C202.8,1080.7,177.1,1080,151.4,1079.4z"/>
<path class="st2" d="M96.9,669.7c-5,3.9,5.3,24.6,8.2,30.6c41.3,87.3-28.4,188.6,10.7,242.4c37.9,52.3,167.6,44.7,195.9-3.4
	c19.3-32.8-21.8-61.8-11.3-150.4c4-33.7,15.2-73.9,4.6-78.6c-2.9-1.3-6.2,0.6-12.6,4.3c-21.4,12.4-23.3,28.6-38.4,34.6
	c-7.4,2.9-13.9,1.7-24.1-0.3c-26.4-5.2-45-18.5-72.4-39C113.8,677.4,101.1,666.4,96.9,669.7z"/>
<path class="st3" d="M216.9,752.3"/>
<path class="st3" d="M197.7,248.5c10.8-0.9,21.5-1.9,32.3-2.8c1.1,58.1,2.1,116.2,2.9,174.2c1.7,120,2.6,222.3,3,342.3
	c-21.1-1.1-42.3,2.9-63.4,1.8c-1.6-123.2,2-241,12.5-378C188.6,339.3,192.8,293.4,197.7,248.5z"/>
<line class="st1" x1="197.2" y1="209.7" x2="170.6" y2="1079.9"/>
<line class="st1" x1="227.1" y1="84.9" x2="206.1" y2="1080.8"/>
<line class="st1" x1="217.1" y1="129.8" x2="194.8" y2="1081.2"/>
<line class="st1" x1="207.7" y1="169.3" x2="183.2" y2="1080.2"/>
<g>
	<g>

			<ellipse transform="matrix(0.4665 -0.8845 0.8845 0.4665 46.0135 246.1473)" class="st4" cx="227.1" cy="84.9" rx="10.5" ry="11.4"/>

			<ellipse transform="matrix(0.4665 -0.8845 0.8845 0.4665 46.0135 246.1473)" class="st4" cx="227.1" cy="84.9" rx="8.7" ry="9.5"/>
		<ellipse transform="matrix(0.4665 -0.8845 0.8845 0.4665 46.0135 246.1473)" class="st4" cx="227.1" cy="84.9" rx="7" ry="7.6"/>

			<ellipse transform="matrix(0.4665 -0.8845 0.8845 0.4665 46.0135 246.1473)" class="st4" cx="227.1" cy="84.9" rx="5.2" ry="5.7"/>

			<ellipse transform="matrix(0.4665 -0.8845 0.8845 0.4665 46.0135 246.1473)" class="st4" cx="227.1" cy="84.9" rx="3.5" ry="3.8"/>

			<ellipse transform="matrix(0.4665 -0.8845 0.8845 0.4665 46.0135 246.1473)" class="st4" cx="227.1" cy="84.9" rx="1.7" ry="1.9"/>
	</g>
	<g>
		<line class="st4" x1="227.1" y1="84.9" x2="227.1" y2="84.9"/>
		<line class="st4" x1="227.1" y1="84.9" x2="216" y2="86.1"/>
		<path class="st4" d="M227.1,84.9L227.1,84.9C227.1,84.9,217,79.6,227.1,84.9z"/>
	</g>
</g>
<g>
	<g>

			<ellipse transform="matrix(0.4665 -0.8845 0.8845 0.4665 0.9537 261.2647)" class="st4" cx="217.1" cy="129.8" rx="10.5" ry="11.4"/>

			<ellipse transform="matrix(0.4665 -0.8845 0.8845 0.4665 0.9537 261.2647)" class="st4" cx="217.1" cy="129.8" rx="8.7" ry="9.5"/>
		<ellipse transform="matrix(0.4665 -0.8845 0.8845 0.4665 0.9537 261.2647)" class="st4" cx="217.1" cy="129.8" rx="7" ry="7.6"/>

			<ellipse transform="matrix(0.4665 -0.8845 0.8845 0.4665 0.9537 261.2647)" class="st4" cx="217.1" cy="129.8" rx="5.2" ry="5.7"/>

			<ellipse transform="matrix(0.4665 -0.8845 0.8845 0.4665 0.9537 261.2647)" class="st4" cx="217.1" cy="129.8" rx="3.5" ry="3.8"/>

			<ellipse transform="matrix(0.4665 -0.8845 0.8845 0.4665 0.9537 261.2647)" class="st4" cx="217.1" cy="129.8" rx="1.7" ry="1.9"/>
	</g>
	<g>
		<line class="st4" x1="217.1" y1="129.8" x2="217.1" y2="129.8"/>
		<line class="st4" x1="217.1" y1="129.8" x2="206" y2="131"/>
		<path class="st4" d="M217.1,129.8L217.1,129.8C217.1,129.8,207,124.5,217.1,129.8z"/>
	</g>
</g>
<g>
	<g>

			<ellipse transform="matrix(0.4665 -0.8845 0.8845 0.4665 -38.9332 274.0613)" class="st4" cx="207.7" cy="169.3" rx="10.5" ry="11.4"/>

			<ellipse transform="matrix(0.4665 -0.8845 0.8845 0.4665 -38.9332 274.0613)" class="st4" cx="207.7" cy="169.3" rx="8.7" ry="9.5"/>

			<ellipse transform="matrix(0.4665 -0.8845 0.8845 0.4665 -38.9332 274.0613)" class="st4" cx="207.7" cy="169.3" rx="7" ry="7.6"/>

			<ellipse transform="matrix(0.4665 -0.8845 0.8845 0.4665 -38.9332 274.0613)" class="st4" cx="207.7" cy="169.3" rx="5.2" ry="5.7"/>

			<ellipse transform="matrix(0.4665 -0.8845 0.8845 0.4665 -38.9332 274.0613)" class="st4" cx="207.7" cy="169.3" rx="3.5" ry="3.8"/>

			<ellipse transform="matrix(0.4665 -0.8845 0.8845 0.4665 -38.9332 274.0613)" class="st4" cx="207.7" cy="169.3" rx="1.7" ry="1.9"/>
	</g>
	<g>
		<line class="st4" x1="207.7" y1="169.3" x2="207.7" y2="169.3"/>
		<line class="st4" x1="207.7" y1="169.3" x2="196.7" y2="170.5"/>
		<path class="st4" d="M207.7,169.3L207.7,169.3C207.7,169.3,197.6,164,207.7,169.3z"/>
	</g>
</g>
<g>
	<g>

			<ellipse transform="matrix(0.4665 -0.8845 0.8845 0.4665 -80.5922 280.3919)" class="st4" cx="192.1" cy="207" rx="10.5" ry="11.4"/>

			<ellipse transform="matrix(0.4665 -0.8845 0.8845 0.4665 -80.5922 280.3919)" class="st4" cx="192.1" cy="207" rx="8.7" ry="9.5"/>
		<ellipse transform="matrix(0.4665 -0.8845 0.8845 0.4665 -80.5922 280.3919)" class="st4" cx="192.1" cy="207" rx="7" ry="7.6"/>

			<ellipse transform="matrix(0.4665 -0.8845 0.8845 0.4665 -80.5922 280.3919)" class="st4" cx="192.1" cy="207" rx="5.2" ry="5.7"/>

			<ellipse transform="matrix(0.4665 -0.8845 0.8845 0.4665 -80.5922 280.3919)" class="st4" cx="192.1" cy="207" rx="3.5" ry="3.8"/>

			<ellipse transform="matrix(0.4665 -0.8845 0.8845 0.4665 -80.5922 280.3919)" class="st4" cx="192.1" cy="207" rx="1.7" ry="1.9"/>
	</g>
	<g>
		<line class="st4" x1="192.1" y1="207" x2="192.1" y2="207"/>
		<line class="st4" x1="192.1" y1="207" x2="181.1" y2="208.2"/>
		<path class="st4" d="M192.1,207L192.1,207C192.1,207,182,201.7,192.1,207z"/>
	</g>
</g>
</svg>
