<?xml version="1.0" encoding="utf-8"?>
<!-- Generator: Adobe Illustrator 22.1.0, SVG Export Plug-In . SVG Version: 6.00 Build 0)  -->
<svg version="1.1" id="Layer_1" xmlns="http://www.w3.org/2000/svg" xmlns:xlink="http://www.w3.org/1999/xlink" x="0px" y="0px"
	 viewBox="0 0 748.4 632.3" preserveAspectRatio= "xMidYMid" style="enable-background:new 0 0 748.4 632.3;" xml:space="preserve">
<style type="text/css">
	.st0{fill:#525151;}
	.st1{fill:#848484;}
	.st2{fill:#171716;}
	.st3{fill:#FF4800;stroke:#020000;stroke-miterlimit:10;}
	.st4{fill:url(#SVGID_1_);stroke:#E3E4E5;stroke-miterlimit:10;}
	.st5{fill:#DBD9D9;stroke:#020000;stroke-miterlimit:10;}
	.st6{fill:#136333;stroke:#E3E4E5;stroke-miterlimit:10;}
	.st7{fill:#D3B95F;}
	.st8{fill:#136333;stroke:#000000;stroke-miterlimit:10;}
	.st9{fill:url(#SVGID_2_);stroke:#E3E4E5;stroke-miterlimit:10;}
	.st10{fill:url(#SVGID_3_);stroke:#E3E4E5;stroke-miterlimit:10;}
	.st11{fill:#FFFFFF;stroke:#000000;stroke-miterlimit:10;}
	.st12{fill:url(#SVGID_4_);stroke:#E3E4E5;stroke-miterlimit:10;}
	.st13{fill:#E3E4E5;}
	.st14{fill:url(#SVGID_5_);stroke:#000000;stroke-miterlimit:10;}
	.st15{fill:url(#SVGID_6_);stroke:#000000;stroke-miterlimit:10;}
	.st16{fill:url(#SVGID_7_);stroke:#000000;stroke-miterlimit:10;}
	.st17{fill:url(#SVGID_8_);stroke:#E3E4E5;stroke-miterlimit:10;}
	.st18{fill:url(#SVGID_9_);stroke:#E3E4E5;stroke-miterlimit:10;}
	.st19{fill:url(#SVGID_10_);stroke:#E3E4E5;stroke-miterlimit:10;}
	.st20{fill:#0A00A2;stroke:#D3B95F;stroke-miterlimit:10;}
	.st21{fill:#0A00A2;}
	.st22{fill:#2A2827;}
	.st23{fill:#BC8F80;}
	.st24{fill:#AA3A3A;}
</style>
<polygon class="st0" points="587.1,514.5 547.7,528.1 547.7,528.1 583.9,528.1 603.3,565.8 603.3,530.7 636.6,506.1 "/>
<path class="st0" d="M587.1,514.5"/>
<path class="st0" d="M356.2,507.4"/>
<path class="st0" d="M583.9,528.1"/>
<path class="st0" d="M355.7,506.8"/>
<path class="st0" d="M583.9,528.1"/>
<polygon class="st0" points="640.9,489.9 599.8,501.5 599.8,501.5 637.6,501.5 657.8,533.6 657.8,503.7 692.5,482.8 "/>
<polygon class="st0" points="519.9,483.2 475.9,497 475.9,497 516.4,497 538,535.1 538,499.6 575.1,474.7 "/>
<polygon class="st0" points="124.9,471.6 81,485.4 81,485.4 121.4,485.4 143,523.5 143,488 180.2,463.2 "/>
<polygon class="st1" points="591.8,175.4 586.3,474.7 542.2,512.4 547.7,528.1 591.8,489 603.3,565.8 612.1,565.8 600,483.4
	628.5,507.2 632,489 600,466.3 602.6,168.4 "/>
<polygon class="st1" points="387.8,510 397.1,587.2 410.2,583.9 399,499.4 "/>
<path class="st1" d="M533.3,295c-2.7,53-5.4,105.9-8.1,158.9c-16.4,11-32.8,22-49.2,33c0.4,5.4,0.7,10.7,1.1,16.1
	c16.5-12,33-23.9,49.5-35.9l12.9,72.3h7.4c-4.1-23.4-8.1-46.8-12.2-70.2c10.2,6.1,20.4,12.2,30.5,18.2c1.5-3.5,2.9-7,4.4-10.6
	c-10.3-6.7-20.5-13.5-30.8-20.2c0.7-20.7,1.6-41.9,2.8-63.5c1.9-33.4,4.3-65.7,7.2-96.9C543.6,295.9,538.4,295.5,533.3,295z"/>
<path class="st1" d="M661.9,262.6c-4.7,63.5-9.5,127.1-14.2,190.6l-51.6,39l4.7,11.1l47.5-37.1l9.5,67.5h6.1l-6.8-68.3l29.9,17.1
	l5.4-9.8l-33.9-21.1c5-63.6,10-127.2,15-190.8C669.7,261.4,665.8,262,661.9,262.6z"/>
<path class="st1" d="M79.5,354.5c-7.5,39.3-14.9,78.7-22.4,118c4.5,4.8,9,9.7,13.6,14.5c8-38.8,16-77.5,23.9-116.3L79.5,354.5z"/>
<path class="st2" d="M49.9,478.9c-2.6,4.2-3.7,10.8-0.6,15c4.2,5.9,15,5.6,19.4-1.4c4.1-6.5,1.4-17.2-5-19.8
	C58.6,470.7,52.7,474.3,49.9,478.9z"/>
<path class="st2" d="M396.5,589.7c-2.5,3.9-3.7,10.1-0.6,14.1c4.2,5.5,14.9,5.2,19.3-1.3c4.1-6.1,1.4-16.1-5-18.6
	C405.2,582,399.3,585.4,396.5,589.7z"/>
<path class="st2" d="M470.4,493.3c-2,3.9-2.8,10.2-0.5,14.3c3.2,5.6,11.5,5.3,14.8-1.3c3.2-6.2,1-16.3-3.8-18.8
	C477.1,485.5,472.6,488.9,470.4,493.3z"/>
<path class="st2" d="M442.5,497.5c0.4,4.9,3.2,10.1,7.6,10.3c6.1,0.3,13.6-8.9,13-17.1c-0.6-7.7-8.3-12.4-14.2-8.8
	C444.2,484.8,442,492.1,442.5,497.5z"/>
<path class="st2" d="M656.1,537c-1.7,3.3-2.4,8.6-0.4,12c2.7,4.7,9.8,4.5,12.6-1.1c2.7-5.2,0.9-13.8-3.3-15.8
	C661.8,530.4,658,533.3,656.1,537z"/>
<path class="st2" d="M626,493.2c-1.7,4.5-2.4,11.5-0.4,16.1c2.7,6.3,9.8,6,12.6-1.5c2.7-7,0.9-18.4-3.3-21.2
	C631.7,484.4,627.9,488.2,626,493.2z"/>
<path class="st2" d="M599.7,565.8c-2.1,4.5-3,11.5-0.5,16.1c3.4,6.3,12.1,6,15.7-1.5c3.3-7,1.1-18.4-4-21.2
	C606.8,557,602,560.8,599.7,565.8z"/>
<path class="st2" d="M535.2,524.1c-2.4,4-3.4,10.4-0.6,14.5c3.8,5.7,13.8,5.4,17.8-1.3c3.8-6.3,1.2-16.6-4.6-19.2
	C543.2,516.2,537.8,519.7,535.2,524.1z"/>
<path class="st2" d="M686.6,476c-2.1,3.8-3,9.8-0.5,13.6c3.4,5.3,12.1,5.1,15.7-1.2c3.3-5.9,1.1-15.6-4-18
	C693.6,468.5,688.9,471.8,686.6,476z"/>
<path class="st2" d="M556.4,471.5c-2.1,3.3-3,8.6-0.5,12c3.4,4.7,12.1,4.5,15.7-1.1c3.3-5.2,1.1-13.8-4-15.8
	C563.4,464.9,558.7,467.8,556.4,471.5z"/>
<path class="st2" d="M596.1,492.2c-2.1,3.1-3.1,7.9-0.5,11.1c3.5,4.3,12.6,4.1,16.2-1c3.5-4.8,1.1-12.7-4.2-14.6
	C603.4,486.1,598.5,488.8,596.1,492.2z"/>
<path class="st1" d="M556.7,632.3"/>
<path class="st1" d="M345.3,169.8"/>
<path class="st2" d="M436.3,173.6c-2.5,3.9-3.7,10.1-0.6,14.1c4.2,5.5,14.9,5.2,19.3-1.3c4.1-6.1,1.4-16.1-5-18.6
	C444.9,165.9,439.1,169.3,436.3,173.6z"/>
<path class="st2" d="M180.3,478.3"/>
<path class="st2" d="M266.1,314.1c0,0-3.5,10.3-0.6,14.1c4.2,5.5,14.9,5.2,19.3-1.3c3.9-5.8-0.5-16.7-5-18.6
	C274.6,306.2,266.1,314.1,266.1,314.1L266.1,314.1z"/>
<path class="st2" d="M537,515.9c-2.1,3.1-3.1,7.9-0.5,11.1c3.5,4.3,12.6,4.1,16.2-1c3.5-4.8,1.1-12.7-4.2-14.6
	C544.3,509.9,539.4,512.5,537,515.9z"/>
<path class="st2" d="M193.9,537.5c-2.6,3.9-3.7,10.1-0.6,14.1c4.3,5.5,15.3,5.2,19.7-1.3c4.2-6.1,1.4-16.1-5.1-18.6
	C202.7,529.8,196.8,533.2,193.9,537.5z"/>
<path class="st3" d="M343.3,205.4L229.1,310.8c0,0,166.2,114.2,179.9,164.9c-4.6,26.1-9.3,52.3-13.9,78.4c45-34.6,90-69.3,135-103.9
	c2.8-17,12.6-87.1-21.3-152.8C474.9,231.6,410.5,196.2,343.3,205.4z"/>
<radialGradient id="SVGID_1_" cx="349.7562" cy="236.731" r="0" gradientTransform="matrix(1 0 0 1.2464 0 -155.8018)" gradientUnits="userSpaceOnUse">
	<stop  offset="0" style="stop-color:#FFFFFF"/>
	<stop  offset="2.288210e-02" style="stop-color:#F8F8F8"/>
	<stop  offset="0.3043" style="stop-color:#A1A1A1"/>
	<stop  offset="0.5524" style="stop-color:#5C5C5C"/>
	<stop  offset="0.7579" style="stop-color:#2A2A2A"/>
	<stop  offset="0.9131" style="stop-color:#0B0B0B"/>
	<stop  offset="1" style="stop-color:#000000"/>
</radialGradient>
<path class="st4" d="M349.8,139.3"/>
<path d="M265.5,277.2c67.7-8.6,131.3,30,160.7,97.1c28.4,64.7,14.1,130.8,10.4,146.2c14.1-12.9,26-22.7,34.3-29.2
	c16.7-13.2,38.2-28.6,38.2-28.6c0,0,0,0,0,0c0.5-12.7,4.6-114.9-27.7-172.7c-29.6-52.9-93.4-75.4-158.7-65.6
	C303.6,242,284.6,259.6,265.5,277.2z"/>
<polygon class="st5" points="427.7,388.3 426.1,384.5 450.9,368.4 452.5,372.2 "/>
<path class="st5" d="M411.3,384.3c2.8-8.4,16.6-7.5,19.5-1c2.9,6.5-4,22-11,20.5C414.2,402.6,409.1,391,411.3,384.3z"/>
<polygon class="st5" points="437.3,370.3 453.9,359.5 460.1,374.2 443.4,385.1 "/>
<polygon class="st5" points="390.8,321 388.9,317.4 412.4,298.4 414.2,302 "/>
<path class="st5" d="M374.2,318.9c2.1-8.7,15.9-9.4,19.3-3.3c3.4,6.2-2.2,22.4-9.4,21.7C378.5,336.8,372.4,325.9,374.2,318.9z"/>
<polygon class="st5" points="398.9,301.9 414.7,289.1 422,303.1 406.2,315.9 "/>
<polygon class="st5" points="336,291 333.3,288.4 350.6,261 353.2,263.6 "/>
<path class="st5" d="M324.9,286.4c0.4-8.6,12.5-15.2,17.4-10.9c2.6,2.3,2.8,7.2,2.9,9.2c0.2,5.3-1.5,13.1-6.1,15.2
	C333,302.5,324.6,293.9,324.9,286.4z"/>
<polygon class="st5" points="338.8,269.8 350.4,251.3 360.9,261.5 349.2,280 "/>
<polygon class="st5" points="287.4,278.4 284.7,275.8 301.6,248 304.3,250.6 "/>
<path class="st5" d="M273.2,268.2c2.5-8.5,16.4-8.2,19.4-1.9c3.1,6.4-3.3,22.2-10.4,21C276.7,286.3,271.2,275,273.2,268.2z"/>
<polygon class="st5" points="289.9,257.1 301.3,238.3 311.9,248.4 300.5,267.1 "/>
<polygon class="st5" points="441.2,476.5 439.5,472.7 463.2,455.9 464.9,459.6 "/>
<path class="st5" d="M425,472.9c2.5-8.5,16-7.9,19-1.6c3,6.4-3.3,22.1-10.2,20.8C428.4,491.1,423,479.7,425,472.9z"/>
<polygon class="st5" points="450,458.2 466,446.9 472.4,461.4 456.4,472.7 "/>
<polygon class="st5" points="514.9,420.1 516.6,423.9 492,440.4 490.4,436.7 "/>
<path class="st5" d="M531.4,423.8c-2.7,8.5-16.5,7.8-19.5,1.4c-3-6.5,3.7-22.1,10.8-20.7C528.3,405.6,533.6,417.1,531.4,423.8z"/>
<polygon class="st5" points="505.6,438.3 489.1,449.4 482.7,434.8 499.3,423.7 "/>
<polygon class="st5" points="501.3,330.1 503.2,333.7 479.6,352.4 477.8,348.8 "/>
<path class="st5" d="M518,332.3c-2.2,8.7-16,9.2-19.3,3.1c-3.4-6.2,2.4-22.3,9.5-21.6C513.8,314.4,519.7,325.4,518,332.3z"/>
<polygon class="st5" points="493.1,349 477.2,361.7 470,347.6 485.9,335 "/>
<polygon class="st5" points="452.2,257.5 454.2,261 431.4,281.1 429.4,277.6 "/>
<path class="st5" d="M468.9,258.7c-1.9,8.8-15.6,10.2-19.2,4.3c-3.6-6,1.5-22.5,8.7-22.2C464,241.1,470.4,251.7,468.9,258.7z"/>
<polygon class="st5" points="444.7,276.9 429.3,290.5 421.6,276.9 437,263.3 "/>
<polygon class="st5" points="371.2,228.1 373.9,230.8 356.2,257.9 353.6,255.2 "/>
<path class="st5" d="M387.5,223.7c0.1,9.1-12.9,15-17.6,10.6c-4.8-4.6-3.4-22.1,3.6-24.3C379,208.3,387.5,216.4,387.5,223.7z"/>
<polygon class="st5" points="368.2,249.3 356.3,267.6 345.9,257.1 357.8,238.9 "/>
<path class="st6" d="M306.6,205.8C341.1,195.1,306.6,205.8,306.6,205.8"/>
<path class="st3" d="M59.1,212.4c-4.6,10.6-3.7,29.3-2.1,66.8c1.7,37.7,5.6,68.4,8.8,89.3c9.1,6.4,19.6,12.5,31.5,17.7
	c42.9,18.8,82,15.4,106.4,10.3c15.4-4.9,30.7-9.7,46.1-14.6c-0.9-56.5-1.7-113-2.6-169.6C231,207,82.4,158.1,59.1,212.4z"/>
<path class="st7" d="M309.2,296.1"/>
<path class="st7" d="M476.4,187"/>
<path class="st7" d="M552.9,319.4"/>
<path class="st8" d="M425.4,312.8"/>
<path class="st3" d="M469.5,227.2c-1.4,5.3,0.4,11,0.5,38.2c0.1,16.5-0.5,30-1.1,39.2c16.7,7.5,40.1,15.3,68.4,16.5
	c25.1,1.1,46.4-3.3,62.4-8.4c2.7-6.9,7.8-21.7,7.9-41.8c0.2-21.2-5.2-36.9-7.9-43.8C501.3,204.1,473.4,212.4,469.5,227.2z"/>
<radialGradient id="SVGID_2_" cx="300.2978" cy="243.1804" r="0" gradientTransform="matrix(1 0 0 1.2464 0 -155.8018)" gradientUnits="userSpaceOnUse">
	<stop  offset="0" style="stop-color:#FFFFFF"/>
	<stop  offset="1" style="stop-color:#000000"/>
</radialGradient>
<path class="st9" d="M300.3,147.3"/>
<radialGradient id="SVGID_3_" cx="391.1234" cy="268.292" r="0" gradientTransform="matrix(1 0 0 1.2464 0 -155.8018)" gradientUnits="userSpaceOnUse">
	<stop  offset="0" style="stop-color:#FFFFFF"/>
	<stop  offset="1" style="stop-color:#000000"/>
</radialGradient>
<path class="st10" d="M391.1,178.6"/>
<path class="st3" d="M462.8,300.1c-9.4,2.8-22.4,5.4-37.8,4.4c-21.4-1.4-38.1-9-48.5-15c-0.3-16.9-0.2-34.7,0.4-53.3
	c0.6-20,1.6-39,3-57c27.8,0.8,55.7,1.6,83.5,2.3c2.1,17.3,3.5,37.7,3.3,60.6C466.7,264,465,283.5,462.8,300.1z"/>
<path class="st5" d="M388.3,252.3"/>
<path class="st11" d="M58.1,210.6c3.3-36.8,103.9-73,165-26.5c7.9,6,27.4,20.9,26.7,39.1C248.6,253,193.8,281.9,146,276
	C104,270.8,55.7,237.3,58.1,210.6z"/>
<path class="st1" d="M136.8,103.6c-2.1,112.4-4.2,224.8-6.3,337.2c-17.3,10.5-34.6,21.1-51.9,31.6c0.4,5.1,0.8,10.2,1.2,15.4
	c17.4-11.4,34.8-22.9,52.2-34.3c1.6,22.9,3.3,45.7,4.9,68.6c5.5,0.2,11,0.4,16.6,0.6c-4.3-22.4-8.6-44.8-12.9-67.2
	c10.7,5.8,21.5,11.6,32.2,17.4c1.5-3.4,3.1-6.7,4.6-10.1c-10.8-6.4-21.7-12.9-32.5-19.3c0.6-54.5,1-109,1.4-163.6
	c0.4-59.6,0.7-119.2,0.8-178.8C143.6,101.9,140.2,102.7,136.8,103.6z"/>
<path class="st2" d="M133.3,512.1c-2.8,3.8-4,9.8-0.7,13.7c4.6,5.3,16.5,5.1,21.3-1.2c4.5-6,1.5-15.7-5.5-18
	C142.8,504.6,136.4,507.9,133.3,512.1z"/>
<polygon class="st1" points="234.9,439.7 209.2,552.8 193.7,544.8 223,421.3 "/>
<path class="st11" d="M0,0"/>
<radialGradient id="SVGID_4_" cx="374.9241" cy="260.8876" r="0" gradientTransform="matrix(1 0 0 1.2464 0 -155.8018)" gradientUnits="userSpaceOnUse">
	<stop  offset="0" style="stop-color:#FFFFFF"/>
	<stop  offset="1" style="stop-color:#000000"/>
</radialGradient>
<path class="st12" d="M374.9,169.4"/>
<path class="st3" d="M356.6,286.7c-9.6,1.6-22.7,2.6-37.9-0.3c-21.2-4.1-37.2-13.8-47-21c1.1-16.9,2.6-34.5,4.7-53
	c2.2-19.8,4.8-38.6,7.6-56.3c29.6,7.4,59.3,14.9,88.9,22.3c-2.5,17-5,34.1-7.5,51.2C362.4,248.8,359.5,267.8,356.6,286.7z"/>
<path class="st2" d="M194.3,537.5c-2.5,3.9-3.7,10.1-0.6,14.1c4.2,5.5,14.9,5.2,19.3-1.3c4.1-6.1,1.4-16.1-5-18.6
	C202.9,529.8,197.1,533.2,194.3,537.5z"/>
<path class="st11" d="M216.3,315.1c36.1-43.3,110.3-34.8,155.4,13.1c53.2,56.5,68.6,170.5,23.4,230.9
	c-30.8,41.1-83.2,48.8-121.2,29.3C194.1,547.3,163.7,378,216.3,315.1z"/>
<path class="st13" d="M277.6,414"/>
<path class="st11" d="M282.7,159.8c0.6-11.4,24.4-19,44.9-14.5c23.4,5.2,47.5,27.2,46.3,39c-1.2,12.1-28.5,14.1-49.4,7.8
	C306.2,186.7,282,171.6,282.7,159.8z"/>
<path class="st11" d="M467.5,228.8c-0.9-14.2,69-45.1,125.1-17.1c7.3,3.7,20.7,10.3,20.2,17.1c-0.9,12.4-47.7,18.6-85.1,15.8
	C513.6,243.5,468.2,240,467.5,228.8z"/>
<radialGradient id="SVGID_5_" cx="143.2831" cy="236.731" r="76.4513" gradientTransform="matrix(1 0 0 1.2464 0 -155.8018)" gradientUnits="userSpaceOnUse">
	<stop  offset="0" style="stop-color:#FFFFFF"/>
	<stop  offset="1" style="stop-color:#A27500"/>
	<stop  offset="1" style="stop-color:#9B7000"/>
	<stop  offset="1" style="stop-color:#775600"/>
	<stop  offset="1" style="stop-color:#573F00"/>
	<stop  offset="1" style="stop-color:#3B2B00"/>
	<stop  offset="1" style="stop-color:#251B00"/>
	<stop  offset="1" style="stop-color:#140F00"/>
	<stop  offset="1" style="stop-color:#090600"/>
	<stop  offset="1" style="stop-color:#020100"/>
	<stop  offset="1" style="stop-color:#000000"/>
</radialGradient>
<path class="st14" d="M50.4,123.9c4.3-37,72.4-68.3,124.1-45.3c33.6,14.9,68,56.4,61,88.1c-7.8,35.2-64.4,48.3-105.1,37.6
	C91,193.8,46.7,156,50.4,123.9z"/>
<radialGradient id="SVGID_6_" cx="602.1876" cy="222.5985" r="82.0895" gradientTransform="matrix(1 0 0 1.2464 0 -155.8018)" gradientUnits="userSpaceOnUse">
	<stop  offset="0" style="stop-color:#FFFFFF"/>
	<stop  offset="1" style="stop-color:#A27500"/>
	<stop  offset="1" style="stop-color:#9B7000"/>
	<stop  offset="1" style="stop-color:#775600"/>
	<stop  offset="1" style="stop-color:#573F00"/>
	<stop  offset="1" style="stop-color:#3B2B00"/>
	<stop  offset="1" style="stop-color:#251B00"/>
	<stop  offset="1" style="stop-color:#140F00"/>
	<stop  offset="1" style="stop-color:#090600"/>
	<stop  offset="1" style="stop-color:#020100"/>
	<stop  offset="1" style="stop-color:#000000"/>
</radialGradient>
<path class="st15" d="M501.3,126.4c-1.2-35.2,49.8-70.8,94-75.6c46.3-5,104.7,21.7,107.8,59.6c2.8,35-42.2,72.1-81.9,80.5
	C567.1,202.5,502.6,165.2,501.3,126.4z"/>
<radialGradient id="SVGID_7_" cx="660.2064" cy="338.1565" r="69.5527" gradientTransform="matrix(1 0 0 1.2464 0 -155.8018)" gradientUnits="userSpaceOnUse">
	<stop  offset="0" style="stop-color:#FFFFFF"/>
	<stop  offset="1" style="stop-color:#A27500"/>
	<stop  offset="1" style="stop-color:#9B7000"/>
	<stop  offset="1" style="stop-color:#775600"/>
	<stop  offset="1" style="stop-color:#573F00"/>
	<stop  offset="1" style="stop-color:#3B2B00"/>
	<stop  offset="1" style="stop-color:#251B00"/>
	<stop  offset="1" style="stop-color:#140F00"/>
	<stop  offset="1" style="stop-color:#090600"/>
	<stop  offset="1" style="stop-color:#020100"/>
	<stop  offset="1" style="stop-color:#000000"/>
</radialGradient>
<path class="st16" d="M676.3,213c35.8,9,74.9,42.4,71.3,68.1c-4.2,30.7-69.8,53-120.4,32c-22.7-9.4-56.6-33.4-54.6-57.4
	C575.1,226.5,630.2,201.3,676.3,213z"/>
<path class="st7" d="M174.6,121.6"/>
<radialGradient id="SVGID_8_" cx="421.3322" cy="284.3806" r="0" gradientTransform="matrix(1.2059 0 0 1.3184 -94.0719 -199.0694)" gradientUnits="userSpaceOnUse">
	<stop  offset="0" style="stop-color:#FFFFFF"/>
	<stop  offset="1" style="stop-color:#000000"/>
</radialGradient>
<path class="st17" d="M414,175.8"/>
<path class="st2" d="M78.5,472.4c-2.5,3.7-3.7,9.6-0.6,13.4c4.2,5.2,14.9,5,19.3-1.2c4.1-5.9,1.4-15.4-5-17.7
	C87.2,465,81.4,468.3,78.5,472.4z"/>
<radialGradient id="SVGID_9_" cx="487.3463" cy="313.7062" r="0" gradientTransform="matrix(1 0 0 1.2464 0 -155.8018)" gradientUnits="userSpaceOnUse">
	<stop  offset="0" style="stop-color:#FFFFFF"/>
	<stop  offset="1" style="stop-color:#000000"/>
</radialGradient>
<path class="st18" d="M487.3,235.2"/>
<path class="st11" d="M376.9,187.3c-0.4-12.4,23.3-26.5,44.2-26.9c21.4-0.4,45.3,13.5,45.1,26.1c-0.2,11.5-20.6,20.6-34.7,23
	C406.5,213.7,377.3,200.8,376.9,187.3z"/>
<radialGradient id="SVGID_10_" cx="443.31" cy="319.1609" r="0" gradientTransform="matrix(1 0 0 1.2464 0 -155.8018)" gradientUnits="userSpaceOnUse">
	<stop  offset="0" style="stop-color:#FFFFFF"/>
	<stop  offset="1" style="stop-color:#000000"/>
</radialGradient>
<path class="st19" d="M443.3,242"/>
<path class="st2" d="M166.6,459c0,0-3.5,10.3-0.6,14.1c4.2,5.5,14.9,5.2,19.3-1.3c3.9-5.8-0.5-16.7-5-18.6
	C175.2,451,166.6,459,166.6,459L166.6,459z"/>
<path class="st11" d="M417,214.6"/>
<path class="st20" d="M719.9,21.9"/>
<path class="st21" d="M512.4,55.4"/>
<path class="st22" d="M138.5,120.3c-0.6,1.5-0.1,2.2,0.2,6.3c0.4,5.4-0.3,6.8,0.8,8c0.5,0.5,1.9,0.7,4.6,1c1.9,0.2,2.9,0.3,3.4,0
	c1-0.8,0.7-2.3,0.8-7.8c0.1-5.1,0.3-5.7-0.3-7.1c-0.1-0.2-1.8-3.6-4.9-3.5C141.1,117.2,139.2,118.5,138.5,120.3z"/>
<path class="st22" d="M598,101.6c-0.7,1.5-0.1,2.2,0.3,6.2c0.5,5.3-0.3,6.8,1,7.9c0.6,0.5,2.3,0.7,5.6,1c2.3,0.2,3.5,0.3,4,0
	c1.2-0.8,0.9-2.3,1-7.7c0.1-5,0.3-5.7-0.4-7c-0.1-0.2-2.1-3.5-5.9-3.5C601.2,98.5,598.9,99.8,598,101.6z"/>
<path class="st22" d="M656.2,259.8c-0.7,1.3-0.1,1.9,0.3,5.6c0.5,4.8-0.3,6,1,7.1c0.6,0.5,2.3,0.6,5.5,0.9c2.3,0.2,3.5,0.3,4,0
	c1.2-0.7,0.9-2,0.9-6.9c0.1-4.5,0.3-5.1-0.4-6.2c-0.1-0.2-2.1-3.2-5.9-3.1C659.4,257.1,657.2,258.2,656.2,259.8z"/>
<path class="st23" d="M379.6,95.1"/>
<path class="st24" d="M212,239"/>
</svg>
