<?xml version="1.0" encoding="utf-8"?>
<!-- Generator: Adobe Illustrator 22.1.0, SVG Export Plug-In . SVG Version: 6.00 Build 0)  -->
<svg version="1.1" id="Layer_1" xmlns="http://www.w3.org/2000/svg" xmlns:xlink="http://www.w3.org/1999/xlink" x="0px" y="0px"
	 viewBox="0 0 495 1039" preserveAspectRatio= "xMidYMid" style="enable-background:new 0 0 495 1039;" xml:space="preserve">
<style type="text/css">
	.st0{fill:#08005C;stroke:#FFFFFF;stroke-miterlimit:10;}
	.st1{fill:#09C2DB;stroke:#070700;stroke-miterlimit:10;}
	.st2{fill:#FFFFFF;stroke:#000000;stroke-miterlimit:10;}
	.st3{stroke:#FFFFFF;stroke-miterlimit:10;}
	.st4{fill:#020200;}
	.st5{fill:#3D0101;}
	.st6{fill:#08005C;}
	.st7{fill:#FFFFFF;stroke:#F9F9F9;stroke-miterlimit:10;}
	.st8{fill:#FBE1CA;}
	.st9{fill:none;stroke:#FBE1CA;stroke-miterlimit:10;}
	.st10{fill:#FFFFFF;}
	.st11{fill:none;}
	.st12{fill:#8B0B00;}
	.st13{fill:#F9F9F9;stroke:#070700;stroke-miterlimit:10;}
</style>
<path class="st0" d="M319.3,264.8"/>
<path class="st1" d="M218.8,189.7c0,0,3,6,36.2,28.1c-0.5,15.8-1,31.6-1.4,47.6c-2.6,103.7-2.3,205.6,0.4,305.6
	c0,1.7-0.1,9.8-5.2,11.6c-3.8,1.3-8.6-1.5-12.7-4.5c-20.1-14.6-41.5-42.2-57.9-67.7c-13.2-20.6-21.2-25.1-26.3-24.7
	c-16.3,1.5-24.4,57.7-1.7,104.9c2.9,6,5.8,10.8,8.1,14.4c25.6,43.3,28.1,74.1,26.4,93.2c-5.4,62.8-62.2,77.8-62.3,140.8
	c0,35.7,18.2,65.4,24.9,75.3c66.7,98.7,269.9,117.8,308,51.9c18.6-32.3-1.9-85.5-10.2-107c-27.7-71.8-46.7-75.2-56.8-130.6
	c-11.1-60.9,8.7-115-7.8-122.4c-1.7-0.8-3.3-0.7-6.4-0.4c-24.8,1.7-33,29.2-39,28.3c-10.1-1.4-21.4-85.1-34-298.7
	c-3.5-41.7-7-83.3-10.5-125c1.3-5.4,3.7-8.9,5.7-11.1c8.6-9.4,25-11,42.2-5c-14.6-35.9-29.3-71.7-43.9-107.6
	c2.7-1.3,28.9-14.3,27.6-38.7c-1.1-22.7-25.5-46.5-41.6-47.2C260-0.4,236.1,36.1,218.8,189.7z"/>
<path class="st2" d="M37.9,853.4"/>
<path class="st3" d="M252.5,928.7c1.5-14,3-28,4.5-42c27.3,3.3,54.6,6.6,81.9,10c1.1,13.9,2.2,27.8,3.3,41.6
	C312.3,935.2,282.4,931.9,252.5,928.7z"/>
<path class="st4" d="M191.4,561.6c-4.2,3,6,21.4,8.8,26.8c40.9,77.8-15.7,158.9,21.6,207.9c36.1,47.6,150.4,51.3,173,12.4
	c15.4-26.5-22.4-54.5-17.5-129.3c1.9-28.5,9.8-61.9,0.1-66.8c-2.6-1.3-5.5,0-10.9,2.7c-18.3,8.9-19.2,22.6-32.2,26.5
	c-6.4,1.9-12.2,0.4-21.3-2.1c-23.6-6.5-40.7-19.3-65.9-39C206.7,569.5,195,559.1,191.4,561.6z"/>
<path class="st5" d="M301.7,641.5"/>
<path class="st6" d="M259.4,209.8c9.5,0,18.9,0.1,28.4,0.1c3.9,49.7,7.7,99.4,11.3,149c7.5,102.6,13.5,190,19.8,292.6
	c-18.7-2.5-37.2-0.8-56-3.4c-7.6-105.4-10.3-205.6-7.9-321.8C255.9,286.6,257.4,247.7,259.4,209.8z"/>
<line class="st7" x1="257" y1="176.5" x2="277" y2="930.5"/>
<path d="M308.5,921.2"/>
<path d="M277.2,72.3"/>
<line class="st3" x1="258.9" y1="149.9" x2="284.9" y2="931.6"/>
<line class="st3" x1="270.1" y1="99.2" x2="297.3" y2="933.6"/>
<g>
	<g>

			<ellipse transform="matrix(0.6094 -0.7929 0.7929 0.6094 6.2883 255.9159)" class="st3" cx="262.9" cy="121.6" rx="8.8" ry="9.4"/>

			<ellipse transform="matrix(0.6094 -0.7929 0.7929 0.6094 6.2883 255.9159)" class="st3" cx="262.9" cy="121.6" rx="7.3" ry="7.9"/>

			<ellipse transform="matrix(0.6094 -0.7929 0.7929 0.6094 6.2883 255.9159)" class="st3" cx="262.9" cy="121.6" rx="5.9" ry="6.3"/>

			<ellipse transform="matrix(0.6094 -0.7929 0.7929 0.6094 6.2883 255.9159)" class="st3" cx="262.9" cy="121.6" rx="4.4" ry="4.7"/>

			<ellipse transform="matrix(0.6094 -0.7929 0.7929 0.6094 6.2883 255.9159)" class="st3" cx="262.9" cy="121.6" rx="2.9" ry="3.1"/>

			<ellipse transform="matrix(0.6094 -0.7929 0.7929 0.6094 6.2883 255.9159)" class="st3" cx="262.9" cy="121.6" rx="1.5" ry="1.6"/>
	</g>
	<g>
		<line class="st3" x1="262.9" y1="121.6" x2="262.9" y2="121.6"/>
		<line class="st3" x1="262.9" y1="121.6" x2="253.7" y2="121"/>
		<path class="st3" d="M269.6,122.1l-6.7-0.5C262.9,121.6,262.1,116.3,269.6,122.1z"/>
	</g>
</g>
<g>
	<g>

			<ellipse transform="matrix(0.6094 -0.7929 0.7929 0.6094 70.075 242.0697)" class="st3" cx="280.7" cy="49.9" rx="9.3" ry="11.6"/>
		<ellipse transform="matrix(0.6094 -0.7929 0.7929 0.6094 70.075 242.0697)" class="st3" cx="280.7" cy="49.9" rx="7.8" ry="9.7"/>
		<ellipse transform="matrix(0.6094 -0.7929 0.7929 0.6094 70.075 242.0697)" class="st3" cx="280.7" cy="49.9" rx="6.2" ry="7.8"/>
		<ellipse transform="matrix(0.6094 -0.7929 0.7929 0.6094 70.075 242.0697)" class="st3" cx="280.7" cy="49.9" rx="4.7" ry="5.8"/>
		<ellipse transform="matrix(0.6094 -0.7929 0.7929 0.6094 70.075 242.0697)" class="st3" cx="280.7" cy="49.9" rx="3.1" ry="3.9"/>
		<ellipse transform="matrix(0.6094 -0.7929 0.7929 0.6094 70.075 242.0697)" class="st3" cx="280.7" cy="49.9" rx="1.6" ry="1.9"/>
	</g>
	<g>
		<line class="st3" x1="280.7" y1="49.9" x2="280.7" y2="49.9"/>
		<line class="st3" x1="280.7" y1="49.9" x2="269.9" y2="48.5"/>
		<path class="st3" d="M280.7,49.9L280.7,49.9C280.7,49.9,271.5,42.8,280.7,49.9z"/>
	</g>
</g>
<g>
	<g>

			<ellipse transform="matrix(0.6094 -0.7929 0.7929 0.6094 -18.104 263.7958)" class="st3" cx="258.7" cy="150.3" rx="9.1" ry="11.5"/>

			<ellipse transform="matrix(0.6094 -0.7929 0.7929 0.6094 -18.104 263.7958)" class="st3" cx="258.7" cy="150.3" rx="7.6" ry="9.6"/>

			<ellipse transform="matrix(0.6094 -0.7929 0.7929 0.6094 -18.104 263.7958)" class="st3" cx="258.7" cy="150.3" rx="6.1" ry="7.7"/>

			<ellipse transform="matrix(0.6094 -0.7929 0.7929 0.6094 -18.104 263.7958)" class="st3" cx="258.7" cy="150.3" rx="4.6" ry="5.8"/>
		<ellipse transform="matrix(0.6094 -0.7929 0.7929 0.6094 -18.104 263.7958)" class="st3" cx="258.7" cy="150.3" rx="3" ry="3.8"/>

			<ellipse transform="matrix(0.6094 -0.7929 0.7929 0.6094 -18.104 263.7958)" class="st3" cx="258.7" cy="150.3" rx="1.5" ry="1.9"/>
	</g>
	<g>
		<line class="st3" x1="258.7" y1="150.3" x2="258.7" y2="150.3"/>
		<line class="st3" x1="258.7" y1="150.3" x2="248" y2="148.8"/>
		<path class="st3" d="M258.7,150.3L258.7,150.3C258.7,150.3,249.5,143.2,258.7,150.3z"/>
	</g>
</g>
<g>
	<g>

			<ellipse transform="matrix(0.6094 -0.7929 0.7929 0.6094 -43.5323 269.2437)" class="st3" cx="251.5" cy="178.8" rx="9.1" ry="11.5"/>

			<ellipse transform="matrix(0.6094 -0.7929 0.7929 0.6094 -43.5323 269.2437)" class="st3" cx="251.5" cy="178.8" rx="7.6" ry="9.6"/>

			<ellipse transform="matrix(0.6094 -0.7929 0.7929 0.6094 -43.5323 269.2437)" class="st3" cx="251.5" cy="178.8" rx="6.1" ry="7.7"/>

			<ellipse transform="matrix(0.6094 -0.7929 0.7929 0.6094 -43.5323 269.2437)" class="st3" cx="251.5" cy="178.8" rx="4.6" ry="5.8"/>

			<ellipse transform="matrix(0.6094 -0.7929 0.7929 0.6094 -43.5323 269.2437)" class="st3" cx="251.5" cy="178.8" rx="3" ry="3.8"/>

			<ellipse transform="matrix(0.6094 -0.7929 0.7929 0.6094 -43.5323 269.2437)" class="st3" cx="251.5" cy="178.8" rx="1.5" ry="1.9"/>
	</g>
	<g>
		<line class="st3" x1="251.5" y1="178.8" x2="251.5" y2="178.8"/>
		<line class="st3" x1="251.5" y1="178.8" x2="240.8" y2="177.4"/>
		<path class="st3" d="M251.5,178.8L251.5,178.8C251.5,178.8,242.3,171.8,251.5,178.8z"/>
	</g>
</g>
<path class="st0" d="M396.5,184.3"/>
<path class="st8" d="M388.6,232.6"/>
<path class="st9" d="M0,557.3"/>
<path class="st6" d="M109.1,541"/>
<path class="st2" d="M271.4,1039"/>
<path class="st10" d="M495,108.1"/>
<path class="st10" d="M255.9,117.9"/>
<path class="st11" d="M231.9,729.1"/>
<path class="st12" d="M110,359.3"/>
<line class="st3" x1="263.1" y1="121.5" x2="291.5" y2="932.9"/>
<g>
	<g>

			<ellipse transform="matrix(0.6094 -0.7929 0.7929 0.6094 26.7433 252.7978)" class="st3" cx="269.9" cy="99.3" rx="8.8" ry="9.4"/>

			<ellipse transform="matrix(0.6094 -0.7929 0.7929 0.6094 26.7433 252.7978)" class="st3" cx="269.9" cy="99.3" rx="7.3" ry="7.9"/>

			<ellipse transform="matrix(0.6094 -0.7929 0.7929 0.6094 26.7433 252.7978)" class="st3" cx="269.9" cy="99.3" rx="5.9" ry="6.3"/>

			<ellipse transform="matrix(0.6094 -0.7929 0.7929 0.6094 26.7433 252.7978)" class="st3" cx="269.9" cy="99.3" rx="4.4" ry="4.7"/>

			<ellipse transform="matrix(0.6094 -0.7929 0.7929 0.6094 26.7433 252.7978)" class="st3" cx="269.9" cy="99.3" rx="2.9" ry="3.1"/>

			<ellipse transform="matrix(0.6094 -0.7929 0.7929 0.6094 26.7433 252.7978)" class="st3" cx="269.9" cy="99.3" rx="1.5" ry="1.6"/>
	</g>
	<g>
		<line class="st3" x1="269.9" y1="99.3" x2="269.9" y2="99.3"/>
		<line class="st3" x1="269.9" y1="99.3" x2="260.7" y2="98.7"/>
		<path class="st3" d="M276.6,99.8l-6.7-0.5C269.9,99.3,269.2,94,276.6,99.8z"/>
	</g>
</g>
<g>
	<g>

			<ellipse transform="matrix(0.6094 -0.7929 0.7929 0.6094 49.9724 244.8263)" class="st3" cx="273.5" cy="71.7" rx="8.8" ry="9.4"/>

			<ellipse transform="matrix(0.6094 -0.7929 0.7929 0.6094 49.9724 244.8263)" class="st3" cx="273.5" cy="71.7" rx="7.3" ry="7.9"/>

			<ellipse transform="matrix(0.6094 -0.7929 0.7929 0.6094 49.9724 244.8263)" class="st3" cx="273.5" cy="71.7" rx="5.9" ry="6.3"/>

			<ellipse transform="matrix(0.6094 -0.7929 0.7929 0.6094 49.9724 244.8263)" class="st3" cx="273.5" cy="71.7" rx="4.4" ry="4.7"/>

			<ellipse transform="matrix(0.6094 -0.7929 0.7929 0.6094 49.9724 244.8263)" class="st3" cx="273.5" cy="71.7" rx="2.9" ry="3.1"/>

			<ellipse transform="matrix(0.6094 -0.7929 0.7929 0.6094 49.9724 244.8263)" class="st3" cx="273.5" cy="71.7" rx="1.5" ry="1.6"/>
	</g>
	<g>
		<line class="st3" x1="273.5" y1="71.7" x2="273.5" y2="71.7"/>
		<line class="st3" x1="273.5" y1="71.7" x2="264.2" y2="71.2"/>
		<path class="st3" d="M280.2,72.2l-6.7-0.5C273.5,71.7,272.7,66.4,280.2,72.2z"/>
	</g>
</g>
<line class="st3" x1="281" y1="50.1" x2="312.5" y2="935.1"/>
<line class="st3" x1="274.9" y1="74.4" x2="305.3" y2="934.7"/>
<polygon class="st13" points="158.4,899.9 176.3,865.2 157.8,830.9 196.3,837.1 223.3,809 229.2,847.5 264.3,864.5 229.5,882
	224.2,920.7 196.8,893 "/>
</svg>
